<svg width="102" height="104" xmlns="http://www.w3.org/2000/svg"><g fill="none" fill-rule="evenodd"><path d="M44.424 22.393c5.906 3.722 10.845 6.24 14.816 7.556 4.2 1.392 12.47 3.144 24.81 5.257a8 8 0 014.309 13.54c-8.013 8.02-13.493 13.956-16.44 17.807-3.268 4.272-8.315 12.376-15.14 24.311a8 8 0 01-13.268.93c-5.645-7.285-9.89-11.923-12.733-13.914-2.729-1.91-8.331-4.3-16.808-7.169a8 8 0 01-2.893-13.427c7.074-6.6 11.808-11.61 14.2-15.027 2.399-3.425 4.844-8.676 7.336-15.753a8 8 0 0111.81-4.111z" fill="#A0D3FF" opacity=".122"/><g fill-rule="nonzero"><path d="M66.23 40H35.77a3.763 3.763 0 00-3.76 3.759V84.88a3.763 3.763 0 003.76 3.759h30.46a3.763 3.763 0 003.76-3.759V43.76A3.763 3.763 0 0066.23 40zm-32.794 3.759a2.336 2.336 0 012.333-2.334h30.462a2.336 2.336 0 012.333 2.334v14.518H33.436V43.759zM68.564 84.88a2.336 2.336 0 01-2.333 2.334H35.769a2.336 2.336 0 01-2.333-2.334v-25.18h35.128v25.18z" fill="#37486E"/><path d="M59.377 44.57H38.054c-.813 0-1.474.66-1.474 1.473v7.616c0 .812.661 1.474 1.474 1.474h1.523a.712.712 0 100-1.425h-1.523a.049.049 0 01-.05-.05v-7.615a.05.05 0 01.05-.049h21.323a.712.712 0 100-1.425z" fill="#0091FF"/><path d="M63.946 44.57h-1.523a.712.712 0 100 1.424h1.523a.05.05 0 01.05.05l-.001 7.615a.05.05 0 01-.049.049H42.623a.712.712 0 100 1.425h21.323c.813 0 1.474-.662 1.474-1.474v-7.616c0-.813-.661-1.474-1.474-1.474z" fill="#0091FF"/><path d="M47.192 62.846a3 3 0 00-2.997 2.997 3 3 0 002.997 2.997 3 3 0 002.997-2.997 3 3 0 00-2.997-2.997zm0 4.57a1.574 1.574 0 01-1.572-1.573c0-.867.706-1.572 1.572-1.572.867 0 1.572.705 1.572 1.572 0 .867-.705 1.572-1.572 1.572zM47.192 70.461a3 3 0 00-2.997 2.997 3 3 0 002.997 2.998 3 3 0 002.997-2.998 3 3 0 00-2.997-2.997zm0 4.57a1.574 1.574 0 01-1.572-1.573c0-.867.706-1.572 1.572-1.572.867 0 1.572.705 1.572 1.572 0 .867-.705 1.572-1.572 1.572zM47.192 78.077a3 3 0 00-2.997 2.997 3 3 0 002.997 2.997 3 3 0 002.997-2.997 3 3 0 00-2.997-2.997zm0 4.569a1.574 1.574 0 01-1.572-1.572c0-.867.706-1.572 1.572-1.572.867 0 1.572.705 1.572 1.572 0 .867-.705 1.572-1.572 1.572zM54.808 62.846a3 3 0 00-2.997 2.997 3 3 0 002.997 2.997 3 3 0 002.997-2.997 3 3 0 00-2.997-2.997zm0 4.57a1.574 1.574 0 01-1.572-1.573c0-.867.705-1.572 1.572-1.572.867 0 1.572.705 1.572 1.572 0 .867-.705 1.572-1.572 1.572zM54.808 70.461a3 3 0 00-2.997 2.997 3 3 0 002.997 2.998 3 3 0 002.997-2.998 3 3 0 00-2.997-2.997zm0 4.57a1.574 1.574 0 01-1.572-1.573c0-.867.705-1.572 1.572-1.572.867 0 1.572.705 1.572 1.572 0 .867-.705 1.572-1.572 1.572zM54.808 78.077a3 3 0 00-2.997 2.997 3 3 0 002.997 2.997 3 3 0 002.997-2.997 3 3 0 00-2.997-2.997zm0 4.569a1.574 1.574 0 01-1.572-1.572c0-.867.705-1.572 1.572-1.572.867 0 1.572.705 1.572 1.572 0 .867-.705 1.572-1.572 1.572zM39.577 62.846a3 3 0 00-2.997 2.997 3 3 0 002.997 2.997 3 3 0 002.997-2.997 3 3 0 00-2.997-2.997zm0 4.57a1.574 1.574 0 01-1.572-1.573c0-.867.705-1.572 1.572-1.572.867 0 1.572.705 1.572 1.572 0 .867-.705 1.572-1.572 1.572zM39.577 70.461a3 3 0 00-2.997 2.997 3 3 0 002.997 2.998 3 3 0 002.997-2.998 3 3 0 00-2.997-2.997zm0 4.57a1.574 1.574 0 01-1.572-1.573c0-.867.705-1.572 1.572-1.572.867 0 1.572.705 1.572 1.572 0 .867-.705 1.572-1.572 1.572zM39.577 78.077a3 3 0 00-2.997 2.997 3 3 0 002.997 2.997 3 3 0 002.997-2.997 3 3 0 00-2.997-2.997zm0 4.569a1.574 1.574 0 01-1.572-1.572c0-.867.705-1.572 1.572-1.572.867 0 1.572.705 1.572 1.572 0 .867-.705 1.572-1.572 1.572zM62.423 62.846a3 3 0 00-2.997 2.997 3 3 0 002.997 2.997 3 3 0 002.997-2.997 3 3 0 00-2.997-2.997zm0 4.57a1.574 1.574 0 01-1.572-1.573c0-.867.705-1.572 1.572-1.572.867 0 1.572.705 1.572 1.572 0 .867-.705 1.572-1.572 1.572zM62.423 70.461a3 3 0 00-2.997 2.997v7.616a3 3 0 002.997 2.997 3 3 0 002.997-2.997v-7.616a3 3 0 00-2.997-2.997zm1.572 10.613c0 .867-.705 1.572-1.572 1.572a1.574 1.574 0 01-1.572-1.572v-7.616c0-.867.705-1.572 1.572-1.572.867 0 1.572.705 1.572 1.572v7.616z" fill="#37486E"/></g><circle fill="#0091FF" opacity=".2" cx="10" cy="40" r="2"/><circle fill="#0091FF" opacity=".193" cx="97" cy="69" r="5"/><circle fill="#0091FF" opacity=".304" cx="68" cy="18" r="2"/></g></svg>