<svg width="102" height="104" xmlns="http://www.w3.org/2000/svg"><g fill="none" fill-rule="evenodd"><path d="M44.424 22.393c5.906 3.722 10.845 6.24 14.816 7.556 4.2 1.392 12.47 3.144 24.81 5.257a8 8 0 014.309 13.54c-8.013 8.02-13.493 13.956-16.44 17.807-3.268 4.272-8.315 12.376-15.14 24.311a8 8 0 01-13.268.93c-5.645-7.285-9.89-11.923-12.733-13.914-2.729-1.91-8.331-4.3-16.808-7.169a8 8 0 01-2.893-13.427c7.074-6.6 11.808-11.61 14.2-15.027 2.399-3.425 4.844-8.676 7.336-15.753a8 8 0 0111.81-4.111z" fill="#A0D3FF" opacity=".122"/><g transform="translate(33 38)"><path d="M49.225 22.876l-1.419-.355v-.215a22.16 22.16 0 00-6.533-15.773A22.16 22.16 0 0025.5 0 22.16 22.16 0 009.727 6.533a22.16 22.16 0 00-6.533 15.773v.215l-1.419.355A2.34 2.34 0 000 25.15v5.491a2.34 2.34 0 001.775 2.274l1.498.374a2.348 2.348 0 002.265 1.741h.799a2.347 2.347 0 002.344-2.344v-9.581a2.347 2.347 0 00-2.344-2.344h-.799c-.281 0-.551.05-.801.141C5.46 10.079 14.497 1.494 25.5 1.494c11.004 0 20.039 8.585 20.763 19.408a2.332 2.332 0 00-.801-.141h-.799a2.347 2.347 0 00-2.344 2.344v9.581a2.347 2.347 0 002.344 2.344h.799c.235 0 .461-.035.675-.1-1.081 6.892-7.059 12.18-14.25 12.18h-1.1a2.746 2.746 0 00-2.492-1.597h-2.396a2.746 2.746 0 00-2.743 2.744A2.746 2.746 0 0025.899 51h2.396a2.747 2.747 0 002.72-2.395h.873c8.58 0 15.596-6.826 15.906-15.332l1.43-.358A2.34 2.34 0 0051 30.641V25.15a2.34 2.34 0 00-1.775-2.274zm-43.687-.621h.799a.85.85 0 01.85.85v9.581a.85.85 0 01-.85.85h-.799a.85.85 0 01-.85-.85v-4.79a.747.747 0 10-1.494 0v3.833l-1.056-.263a.849.849 0 01-.644-.825V25.15c0-.39.265-.73.644-.825l1.056-.264v.64a.747.747 0 101.494 0v-1.596a.85.85 0 01.85-.85zm22.757 27.25h-2.396a1.25 1.25 0 01-1.249-1.248c0-.69.56-1.25 1.25-1.25h2.395a1.25 1.25 0 010 2.498zm21.21-18.864c0 .39-.264.73-.643.825l-1.056.263v-3.834a.747.747 0 10-1.494 0v4.791a.85.85 0 01-.85.85h-.799a.85.85 0 01-.85-.85v-9.581a.85.85 0 01.85-.85h.799a.85.85 0 01.85.85V24.7a.747.747 0 101.494 0v-.64l1.056.264c.38.095.644.434.644.825v5.49z" fill="#37486E" fill-rule="nonzero"/><circle stroke="#0091FF" stroke-width="2" cx="25.5" cy="22.5" r="11.5"/></g><circle fill="#0091FF" opacity=".2" cx="10" cy="40" r="2"/><circle fill="#0091FF" opacity=".193" cx="97" cy="69" r="5"/><circle fill="#0091FF" opacity=".304" cx="68" cy="18" r="2"/></g></svg>