<svg width="100" height="104" xmlns="http://www.w3.org/2000/svg"><g fill="none" fill-rule="evenodd"><path fill="#F3F2F2" opacity=".02" d="M56 62h10v10H56z"/><path d="M44.424 22.393c5.906 3.722 10.845 6.24 14.816 7.556 4.2 1.392 12.47 3.144 24.81 5.257a8 8 0 014.309 13.54c-8.013 8.02-13.493 13.956-16.44 17.807-3.268 4.272-8.315 12.376-15.14 24.311a8 8 0 01-13.268.93c-5.645-7.285-9.89-11.923-12.733-13.914-2.729-1.91-8.331-4.3-16.808-7.169a8 8 0 01-2.893-13.427c7.074-6.6 11.808-11.61 14.2-15.027 2.399-3.425 4.844-8.676 7.336-15.753a8 8 0 0111.81-4.111z" fill="#A0D3FF" opacity=".122"/><g fill-rule="nonzero"><path d="M81.55 47.915L56.847 36.079a.803.803 0 00-.693 0L31.45 47.915a.79.79 0 00-.45.712v28.746c0 .303.175.58.45.712l24.703 11.836a.802.802 0 00.694 0L81.55 78.085a.79.79 0 00.45-.712V48.627a.79.79 0 00-.45-.712zM56.5 37.669l22.87 10.958-6.63 3.177a.79.79 0 00-.135-.085L49.891 40.836 56.5 37.67zm-8.409 4.061l22.837 10.942-4.678 2.242-22.827-10.938 4.668-2.246zm23.37 12.443v8.284l-4.368 2.094v-8.285l4.369-2.093zm8.945 22.703L57.297 87.95V60.96l5.512-2.641a.788.788 0 00.371-1.056.8.8 0 00-1.064-.369L56.5 59.585l-2.21-1.059a.8.8 0 00-1.064.369.788.788 0 00.371 1.056l2.106 1.01v26.988L32.594 76.876V49.888l17.597 8.431a.798.798 0 001.064-.368.788.788 0 00-.37-1.056L33.63 48.627l7.917-3.793 23.941 11.47.011.015v9.492a.79.79 0 00.797.79.8.8 0 00.347-.078l5.962-2.857a.79.79 0 00.45-.712v-9.545l7.351-3.521v26.988z" fill="#37486E"/><path d="M39.568 73.641l-3.472-1.57c-.38-.172-.837-.022-1.02.333-.183.356-.024.783.356.955l3.472 1.57c.107.048.22.071.332.071a.77.77 0 00.688-.404c.183-.356.024-.783-.356-.955zM42.526 71.47l-7.322-3.39a.855.855 0 00-1.12.375.79.79 0 00.39 1.074l7.322 3.39c.118.055.242.081.364.081a.843.843 0 00.756-.455.79.79 0 00-.39-1.074z" fill="#0091FF"/></g><circle fill="#0091FF" opacity=".2" cx="13" cy="40" r="2"/><circle fill="#0091FF" opacity=".193" cx="91" cy="88" r="5"/><circle fill="#0091FF" opacity=".3" cx="71" cy="18" r="2"/></g></svg>