<svg width="102" height="104" xmlns="http://www.w3.org/2000/svg"><g fill="none" fill-rule="evenodd"><path d="M44.424 22.393c5.906 3.722 10.845 6.24 14.816 7.556 4.2 1.392 12.47 3.144 24.81 5.257a8 8 0 014.309 13.54c-8.013 8.02-13.493 13.956-16.44 17.807-3.268 4.272-8.315 12.376-15.14 24.311a8 8 0 01-13.268.93c-5.645-7.285-9.89-11.923-12.733-13.914-2.729-1.91-8.331-4.3-16.808-7.169a8 8 0 01-2.893-13.427c7.074-6.6 11.808-11.61 14.2-15.027 2.399-3.425 4.844-8.676 7.336-15.753a8 8 0 0111.81-4.111z" fill="#A0D3FF" opacity=".122"/><circle fill="#0091FF" opacity=".2" cx="10" cy="40" r="2"/><circle fill="#0091FF" opacity=".193" cx="97" cy="69" r="5"/><circle fill="#0091FF" opacity=".304" cx="68" cy="18" r="2"/><g fill-rule="nonzero"><path d="M74.942 44.071H71.79a.747.747 0 000 1.494h3.153c.311 0 .564.253.564.563v3.918H66.44a.747.747 0 000 1.494h9.065v21.412h-5.653a.747.747 0 000 1.494h5.653v3.918c0 .311-.253.564-.564.564H28.058a.564.564 0 01-.564-.564v-3.918h38.922a.747.747 0 000-1.494H27.494V51.54h9.065a.747.747 0 000-1.494h-9.065v-3.918c0-.31.253-.563.564-.563h3.126a.747.747 0 000-1.494h-3.126A2.06 2.06 0 0026 46.128v32.236a2.06 2.06 0 002.058 2.058h17.93l-1.007 3.096h-2.093a2.597 2.597 0 00-2.594 2.594A1.89 1.89 0 0042.182 88h18.636a1.89 1.89 0 001.888-1.888 2.597 2.597 0 00-2.594-2.594h-2.093l-1.008-3.096h17.932A2.06 2.06 0 0077 78.364V46.128a2.06 2.06 0 00-2.058-2.057zM56.448 83.518H51.59a.747.747 0 000 1.494h8.52c.607 0 1.1.494 1.1 1.1a.394.394 0 01-.393.394H42.182a.394.394 0 01-.394-.394c0-.606.494-1.1 1.1-1.1h5.256a.747.747 0 000-1.494h-1.592l1.008-3.096h7.88l1.008 3.096z" fill="#37486E"/><path d="M33.866 45.51l4.934 2.01v15.752c0 .304.184.578.465.692l3.29 1.341v3.161a.747.747 0 001.494 0v-2.552l7.17 2.921a.746.746 0 00.563 0l11.953-4.87a.747.747 0 00.465-.693V47.52l4.934-2.01a.747.747 0 000-1.384l-17.352-7.07a.747.747 0 00-.564 0l-17.352 7.07a.747.747 0 000 1.384zm8.69 3.54v8.816l-2.262-.921v-8.816l2.261.922zm-2.262 13.72v-4.212l2.261.922v4.212l-2.261-.922zM51.5 67.337L44.05 64.3v-4.213l7.168 2.922a.746.746 0 00.564 0l10.924-4.452v4.212L51.5 67.337zm0-28.783l15.372 6.264-7.972 3.249a.747.747 0 10.564 1.383l3.242-1.32v8.815L51.5 61.51l-7.45-3.036V49.66l7.168 2.922a.746.746 0 00.564 0l4.442-1.81a.747.747 0 00-.564-1.384l-4.16 1.695-6.218-2.534 6.5-2.649a.747.747 0 10-.564-1.383l-7.916 3.226-7.174-2.924L51.5 38.554z" fill="#0091FF"/></g></g></svg>