<svg width="105" height="104" xmlns="http://www.w3.org/2000/svg"><g fill="none" fill-rule="evenodd"><path d="M44.424 22.393c5.906 3.722 10.845 6.24 14.816 7.556 4.2 1.392 12.47 3.144 24.81 5.257a8 8 0 014.309 13.54c-8.013 8.02-13.493 13.956-16.44 17.807-3.268 4.272-8.315 12.376-15.14 24.311a8 8 0 01-13.268.93c-5.645-7.285-9.89-11.923-12.733-13.914-2.729-1.91-8.331-4.3-16.808-7.169a8 8 0 01-2.893-13.427c7.074-6.6 11.808-11.61 14.2-15.027 2.399-3.425 4.844-8.676 7.336-15.753a8 8 0 0111.81-4.111z" fill="#A0D3FF" opacity=".122"/><circle fill="#0091FF" opacity=".2" cx="14" cy="40" r="2"/><circle fill="#0091FF" opacity=".193" cx="100" cy="69" r="5"/><circle fill="#0091FF" opacity=".304" cx="72" cy="18" r="2"/><g fill-rule="nonzero"><path d="M44.382 64.511a.75.75 0 100-1.5h-3.386v-2.249a.75.75 0 10-1.5 0v2.25H36.86V54.35a.97.97 0 00-.976-.984h-7.69c-.62 0-1.105.536-1.105 1.22V86.98c0 .685.485 1.221 1.105 1.221h15.833c.61 0 1.105-.548 1.105-1.22v-7.777a.75.75 0 10-1.5 0V86.7H28.589V54.866h6.771v1.887h-2.533a.75.75 0 100 1.5h2.533v2.724h-2.273a.75.75 0 100 1.5h2.273v6.627c0 .414.336.75.75.75h7.522v5.862a.75.75 0 101.5 0v-6.378c0-.608-.523-.984-1.008-.984h-3.128V64.51h3.386zm-4.886 3.843H36.86V64.51h2.636v3.843z" fill="#0091FF"/><path d="M69.957 71.689V46.214h1.46c.682 0 1.237-.554 1.237-1.236v-.069h3.886a1.453 1.453 0 00.996-.387l.024-.027c.217-.22.35-.509.35-.826v-4.124c0-.684-.614-1.24-1.37-1.24h-3.886v-.07c0-.68-.555-1.235-1.236-1.235H61.88c-.682 0-1.237.554-1.237 1.235v.07H50.881 39.52c-.758 0-1.374.556-1.374 1.24v4.123c0 .685.616 1.241 1.374 1.241h3.568v2.586l-2.774 2.949h-.686c-.656 0-1.19.533-1.19 1.19v3.506c0 .658.534 1.193 1.19 1.193h8.418c.658 0 1.193-.535 1.193-1.193v-3.507c0-.656-.535-1.19-1.193-1.19h-.683l-2.775-2.948v-2.586h16.056v.07c0 .68.554 1.235 1.236 1.235h1.46v29.97h-2.35c-1.04 0-1.885.845-1.885 1.883v4.892h-.823a2.627 2.627 0 00-2.627 2.622v1.367c0 .69.564 1.252 1.257 1.252h19.711c.691 0 1.253-.562 1.253-1.252V85.58a2.626 2.626 0 00-2.623-2.622h-.823v-4.892a1.888 1.888 0 00-1.888-1.883h-2.585V71.69v-.001zm6.454-31.885v2.58l-2.658-2.58h2.658zm-3.757 1.024l2.66 2.581h-2.66v-2.581zm-33.008 2.581v-3.605h.416l3.712 3.605h-4.128zm8.093 8.535v2.889h-7.801v-2.89h7.8zm-2.436-1.5h-2.93l1.465-1.557 1.465 1.557zm-3.088-10.64h6.816l-3.408 3.31-3.408-3.31zm8.041 3.605h-2.784l3.408-3.31 3.408 3.31h-4.032zm2.472-3.605h6.817l-3.409 3.31-3.408-3.31zm6.497 3.605h-1.24l2.658-2.581v2.581h-1.418zm13.317 34.275c.214 0 .388.172.388.383v4.892h-4.367a.75.75 0 100 1.5h6.69c.62 0 1.123.503 1.123 1.122V86.7h-19.22v-1.12c0-.618.505-1.121 1.126-1.121h6.65a.75.75 0 100-1.5h-4.327v-4.892a.39.39 0 01.385-.383h11.552zM68.159 50.71L64.84 54.11v-6.804l3.32 3.402zm-2.29-4.495h2.588v2.652l-2.587-2.652zm2.588 6.338v6.804l-3.319-3.402 3.319-3.402zm-.298 8.647L64.84 64.6V57.796l3.32 3.403zm.298 1.843V69.846l-3.319-3.402 3.319-3.402zm-.298 8.647l-3.319 3.402v-6.804l3.32 3.402zm.298 1.843v2.652H65.87l2.587-2.652zm.75-28.818H64.1h-1.957V38.5h9.01v6.214h-1.946z" fill="#37486E"/><path d="M41.834 73.216c0-.618-.502-1.121-1.119-1.121h-9.21c-.618 0-1.121.502-1.121 1.12v3.06c0 .618.503 1.12 1.122 1.12h9.21c.616 0 1.118-.502 1.118-1.12v-3.06zm-6.474 2.68h-3.476v-2.301h3.476v2.3zm4.974 0H36.86v-2.301h3.474v2.3zM40.715 79.637h-9.21c-.618 0-1.121.503-1.121 1.121v3.06c0 .617.503 1.12 1.122 1.12h9.21c.616 0 1.118-.503 1.118-1.12v-3.06c0-.618-.502-1.12-1.119-1.12zm-5.355 3.801h-3.476v-2.3h3.476v2.3zm4.974 0H36.86v-2.3h3.474v2.3z" fill="#0091FF"/></g></g></svg>