<svg width="101" height="105" xmlns="http://www.w3.org/2000/svg"><g transform="translate(.2 .209)" fill="none" fill-rule="evenodd"><path d="M44.424 22.393c5.906 3.722 10.845 6.24 14.816 7.556 4.2 1.392 12.47 3.144 24.81 5.257a8 8 0 014.309 13.54c-8.013 8.02-13.493 13.956-16.44 17.807-3.268 4.272-8.315 12.376-15.14 24.311a8 8 0 01-13.268.93c-5.645-7.285-9.89-11.923-12.733-13.914-2.729-1.91-8.331-4.3-16.808-7.169a8 8 0 01-2.893-13.427c7.074-6.6 11.808-11.61 14.2-15.027 2.399-3.425 4.844-8.676 7.336-15.753a8 8 0 0111.81-4.111z" fill="#A0D3FF" opacity=".122"/><circle fill="#0091FF" opacity=".193" cx="90.8" cy="87.791" r="5"/><path d="M74.554 73.826h-.996V43.453a3.74 3.74 0 00-3.735-3.735h-10.79v-2.785a5.147 5.147 0 00-5.143-5.142H46.71a5.147 5.147 0 00-5.142 5.142v2.785h-10.79a3.74 3.74 0 00-3.736 3.735v30.373h-.996c-.687 0-1.245.559-1.245 1.245v3.442a4.283 4.283 0 004.278 4.278H71.52a4.283 4.283 0 004.279-4.278V75.07c0-.686-.559-1.245-1.246-1.245zm-15.522-30.59h.234c.627 0 1.138.51 1.138 1.137a1.14 1.14 0 01-1.138 1.138h-.234v-2.276zm0 3.769h.234a2.639 2.639 0 002.626-2.805h7.184v24.818h-1.857v-4.114a6.219 6.219 0 00-1.368-3.883 6.22 6.22 0 00-3.5-2.17l-6.693-1.47a1.074 1.074 0 01-.841-1.046V55.05a8.736 8.736 0 004.215-7.47v-.575zM44.621 58.98l.641-.141a2.562 2.562 0 001.49-.96l2.404 1.766-1.537 1.538-2.998-2.203zm2.958 3.805l-.387 6.232H34.874v-4.114a4.733 4.733 0 013.695-4.594l4.11-.903 4.296 3.158c.184.134.393.207.604.221zm5.747-6.378L50.3 58.632l-3.027-2.224c.003-.062.006-.569.003-.636.943.349 1.961.54 3.024.54 1.062 0 2.08-.191 3.023-.54-.002.067 0 .574.003.636zm-4.187 5.368l1.16-1.16 1.156 1.155.424 7.247h-3.19l.45-7.242zm2.304-2.13l2.405-1.767c.36.475.88.827 1.489.96l.641.142-2.998 2.203-1.537-1.538zm2.18 2.919l4.298-3.158 4.11.903a4.733 4.733 0 013.694 4.594v4.114h-12.35l-.364-6.231c.214-.013.427-.086.613-.222zM43.062 43.21a17.612 17.612 0 003.175-.464.747.747 0 10-.351-1.453c-.918.222-1.865.362-2.824.419v-4.78a3.652 3.652 0 013.648-3.647h7.181a3.652 3.652 0 013.648 3.648v4.492a7.59 7.59 0 01-3.546-3.166 1.106 1.106 0 00-1.688-.28 15.164 15.164 0 01-3.29 2.188.747.747 0 10.657 1.342 16.62 16.62 0 003.268-2.11 9.082 9.082 0 001.935 2.146 9.065 9.065 0 002.664 1.488v4.547c0 3.99-3.247 7.238-7.238 7.238-3.992 0-7.239-3.247-7.239-7.238v-4.37zm2.721 11.84v1.285c0 .491-.348.938-.84 1.045l-6.694 1.47a6.221 6.221 0 00-3.5 2.17 6.219 6.219 0 00-1.368 3.884v4.114h-1.857V44.2h7.184a2.638 2.638 0 002.626 2.805h.234v.574a8.736 8.736 0 004.215 7.471zm-5.587-10.677c0-.628.51-1.138 1.138-1.138h.234v2.276h-.234a1.14 1.14 0 01-1.138-1.138zm34.11 34.14a2.787 2.787 0 01-2.784 2.784H29.078a2.787 2.787 0 01-2.784-2.784V75.32h18.98v1.246c0 .96.782 1.743 1.743 1.743h6.565c.961 0 1.743-.782 1.743-1.743V75.32h7.176a.747.747 0 100-1.494H28.535V43.453a2.244 2.244 0 012.241-2.24h10.791v.528h-.234c-.82 0-1.552.376-2.035.965h-8.123c-.632 0-1.146.514-1.146 1.146v25.913c0 .413.334.747.747.747h39.047a.747.747 0 00.747-.747V43.852c0-.632-.514-1.146-1.145-1.146H61.3a2.628 2.628 0 00-2.035-.965h-.234v-.529h10.791a2.244 2.244 0 012.241 2.241v30.373h-6.076a.747.747 0 100 1.494h8.317v3.193zm-27.537-1.947V75.32h7.063v1.246a.25.25 0 01-.249.249h-6.565a.25.25 0 01-.25-.25zM48.399 52.3c.57.312 1.212.48 1.86.487a4.067 4.067 0 001.941-.487.747.747 0 10-.719-1.31c-.253.14-.662.303-1.181.303-.513 0-.931-.165-1.182-.303a.747.747 0 10-.719 1.31zm-1.952-5.204a.747.747 0 00.747-.747v-1.54a.747.747 0 10-1.494 0v1.54c0 .413.334.747.747.747zm7.705 0a.747.747 0 00.747-.747v-1.54a.747.747 0 10-1.494 0v1.54c0 .413.335.747.747.747z" fill="#37486E" fill-rule="nonzero"/></g></svg>