<svg width="101" height="104" xmlns="http://www.w3.org/2000/svg"><g fill="none" fill-rule="evenodd"><g fill-rule="nonzero"><path d="M75.968 82.68l-6.551-6.55c-3.319-3.32-8.61-3.49-12.135-.518l-1.207-1.208a2.809 2.809 0 00-3.968 0 2.787 2.787 0 00-.688 1.131l-1.244-1.244a2.787 2.787 0 00-1.984-.821c-.75 0-1.454.291-1.984.821a2.788 2.788 0 00-.697 1.158l-1.158-1.158a2.787 2.787 0 00-1.984-.821c-.75 0-1.454.291-1.984.821a2.788 2.788 0 00-.746 1.338c-1.04-.569-2.344-.454-3.246.366a2.783 2.783 0 00-.918 2.01 2.781 2.781 0 00.821 2.051l1.497 1.497a.747.747 0 101.056-1.057L37.352 79a1.324 1.324 0 01.046-1.9c.51-.463 1.339-.424 1.85.086l4.457 4.458c.01.01.02.017.03.026a2.81 2.81 0 002.78 2.678l7.784.058h.006a.747.747 0 00.005-1.494l-7.783-.059a1.313 1.313 0 01-1.302-1.321 1.31 1.31 0 011.322-1.302l7.581.057a.746.746 0 00.733-.19l2.91-2.91c2.92-2.92 7.67-2.92 10.59 0l6.55 6.55a.755.755 0 001.096-.043.754.754 0 00-.04-1.014zm-29.41-3.944a2.814 2.814 0 00-2.346 1.238l-2.771-2.771a1.313 1.313 0 010-1.855 1.313 1.313 0 011.855 0l3.389 3.39-.127-.002zm2.223.017c-.031-.052-1.518-1.55-1.518-1.55a1.313 1.313 0 010-1.855 1.324 1.324 0 011.855 0l3.398 3.433-3.735-.028zm5.583-.272l-1.363-1.363a1.313 1.313 0 01.162-1.657 1.313 1.313 0 011.855 0l1.183 1.183-1.837 1.837z" fill="#37486E"/><path d="M69.417 89.23l-3.64-3.639a.747.747 0 00-.674-.204l-7.206 1.44H45.18l-2.692-2.692a.747.747 0 10-1.057 1.057l2.911 2.911c.14.14.33.22.529.22h13.1c.05 0 .098-.006.147-.015l6.886-1.378 3.356 3.357a.755.755 0 001.097-.043.754.754 0 00-.04-1.014zM80.153 68.688h-1.656a22.896 22.896 0 00-6.741-15.558 22.908 22.908 0 00-16.306-6.754c-6.16 0-11.95 2.398-16.305 6.754a22.896 22.896 0 00-6.741 15.558h-1.657a.747.747 0 00-.747.747v3.188c0 .413.335.747.747.747h49.407a.747.747 0 00.747-.747v-3.188a.747.747 0 00-.748-.747zm-.747 3.188H31.494v-1.694h8.019a.747.747 0 000-1.494h-5.614c.395-11.546 9.91-20.818 21.551-20.818 11.641 0 21.156 9.272 21.551 20.818H43.198a.747.747 0 000 1.495h36.208v1.693zM55.45 40a3.141 3.141 0 00-3.137 3.138 3.141 3.141 0 003.137 3.138 3.141 3.141 0 003.138-3.138 3.141 3.141 0 00-3.138-3.137zm0 4.782a1.645 1.645 0 01-1.643-1.644c0-.906.737-1.643 1.643-1.643s1.644.737 1.644 1.643c0 .907-.737 1.644-1.644 1.644z" fill="#37486E"/><path d="M80.153 51.157c-.406 0-1.643 0-1.643-2.44a.747.747 0 10-1.494 0c0 2.44-1.237 2.44-1.644 2.44a.747.747 0 100 1.494c.407 0 1.644 0 1.644 2.44a.747.747 0 101.494 0c0-2.44 1.237-2.44 1.643-2.44a.747.747 0 100-1.494zm-2.39 1.155a2.826 2.826 0 00-.358-.408c.13-.122.25-.258.358-.408.108.15.228.286.358.408-.13.122-.25.258-.358.408zM70.59 43.985c-.406 0-1.643 0-1.643-2.44a.747.747 0 10-1.494 0c0 2.44-1.237 2.44-1.643 2.44a.747.747 0 100 1.494c.406 0 1.643 0 1.643 2.44a.747.747 0 101.494 0c0-2.44 1.237-2.44 1.644-2.44a.747.747 0 100-1.494zM68.2 45.14a2.826 2.826 0 00-.358-.408c.13-.122.25-.258.358-.408.109.15.228.286.358.408-.13.122-.25.258-.358.408zM45.09 43.985c-.406 0-1.643 0-1.643-2.44a.747.747 0 00-1.494 0c0 2.44-1.237 2.44-1.643 2.44a.747.747 0 000 1.494c.406 0 1.643 0 1.643 2.44a.747.747 0 001.494 0c0-2.44 1.237-2.44 1.644-2.44a.747.747 0 000-1.494zM42.7 45.14a2.837 2.837 0 00-.358-.408c.13-.122.25-.258.358-.408.109.15.228.286.358.408-.13.122-.25.258-.358.408zM35.528 51.157c-.406 0-1.643 0-1.643-2.44a.747.747 0 00-1.494 0c0 2.44-1.237 2.44-1.644 2.44a.747.747 0 000 1.494c.407 0 1.644 0 1.644 2.44a.747.747 0 001.494 0c0-2.44 1.237-2.44 1.643-2.44a.747.747 0 000-1.494zm-2.39 1.155a2.837 2.837 0 00-.358-.408c.13-.122.25-.258.358-.408.108.15.228.286.358.408-.13.122-.25.258-.358.408z" fill="#0091FF"/></g><path d="M44.424 22.393c5.906 3.722 10.845 6.24 14.816 7.556 4.2 1.392 12.47 3.144 24.81 5.257a8 8 0 014.309 13.54c-8.013 8.02-13.493 13.956-16.44 17.807-3.268 4.272-8.315 12.376-15.14 24.311a8 8 0 01-13.268.93c-5.645-7.285-9.89-11.923-12.733-13.914-2.729-1.91-8.331-4.3-16.808-7.169a8 8 0 01-2.893-13.427c7.074-6.6 11.808-11.61 14.2-15.027 2.399-3.425 4.844-8.676 7.336-15.753a8 8 0 0111.81-4.111z" fill="#A0D3FF" opacity=".122"/><circle fill="#0091FF" opacity=".2" cx="9" cy="40" r="2"/><circle fill="#0091FF" opacity=".193" cx="96" cy="69" r="5"/><circle fill="#0091FF" opacity=".304" cx="67" cy="18" r="2"/></g></svg>