<svg width="100" height="104" xmlns="http://www.w3.org/2000/svg"><g fill="none" fill-rule="evenodd"><path fill="#F3F2F2" opacity=".02" d="M56 62h10v10H56z"/><path d="M44.424 22.393c5.906 3.722 10.845 6.24 14.816 7.556 4.2 1.392 12.47 3.144 24.81 5.257a8 8 0 014.309 13.54c-8.013 8.02-13.493 13.956-16.44 17.807-3.268 4.272-8.315 12.376-15.14 24.311a8 8 0 01-13.268.93c-5.645-7.285-9.89-11.923-12.733-13.914-2.729-1.91-8.331-4.3-16.808-7.169a8 8 0 01-2.893-13.427c7.074-6.6 11.808-11.61 14.2-15.027 2.399-3.425 4.844-8.676 7.336-15.753a8 8 0 0111.81-4.111z" fill="#A0D3FF" opacity=".122"/><circle fill="#0091FF" opacity=".2" cx="13" cy="40" r="2"/><circle fill="#0091FF" opacity=".193" cx="91" cy="88" r="5"/><circle fill="#0091FF" opacity=".3" cx="71" cy="18" r="2"/><g fill-rule="nonzero"><path d="M38.844 81.813a.839.839 0 00-.838.839v5.772a.839.839 0 101.677 0v-5.772a.839.839 0 00-.839-.839z" fill="#000"/><path d="M77.588 75.859H74.9a8.92 8.92 0 00-4.43-4.267l-10.938-4.689c-.002 0-.004 0-.006-.002l-.059-.025c.002-.064.006-.127.006-.19v-4.414a10.704 10.704 0 003.662-8.064v-.792h1.101a2.337 2.337 0 002.335-2.335v-2.958a2.337 2.337 0 00-1.717-2.249v-1.712C64.855 37.456 59.399 32 52.693 32h-.564c-6.706 0-12.162 5.456-12.162 12.162v1.712a2.337 2.337 0 00-1.718 2.25v2.957a2.337 2.337 0 002.335 2.335h1.098v.792c0 3.213 1.42 6.1 3.666 8.068v4.41c0 .077.001.154.004.231l-10.858 4.721a8.938 8.938 0 00-5.483 8.256v8.53a.839.839 0 101.678 0v-8.53a7.268 7.268 0 014.465-6.714l7.018-3.051.886 1.513a.839.839 0 001.448-.848l-.784-1.339 1.811-.787.346.266.007.006 5.213 4.017-3.494 3.131-1.602-2.737a.839.839 0 00-1.448.848l2.12 3.623a.84.84 0 001.285.2l3.154-2.826-2.525 13.07a.839.839 0 101.647.318l2.175-11.255 2.175 11.255a.839.839 0 101.647-.319l-2.526-13.069 3.155 2.827a.84.84 0 001.283-.201l4.534-7.744L69.8 73.13a7.243 7.243 0 013.18 2.729h-9.089a2.404 2.404 0 00-2.402 2.402v8.6a2.405 2.405 0 002.402 2.402h13.696a2.405 2.405 0 002.401-2.402v-8.6a2.404 2.404 0 00-2.401-2.402zM64.894 51.081a.658.658 0 01-.657.657h-1.1v-4.272h1.1c.362 0 .657.295.657.657v2.958zm-24.31.657a.658.658 0 01-.657-.657v-2.958c0-.362.295-.657.657-.657h1.098v4.272h-1.098zm2.775 2.47l.002-7.58v-.017c.018-.547.162-1.552.887-2.413.728-.865 1.655-1.133 1.96-1.22 1.207-.35 1.969-.001 3.022.48 1.02.468 2.176.998 3.883.913 1.3-.064 2.247-.464 3.002-.846a.839.839 0 00-.758-1.497c-.725.368-1.398.622-2.326.667-1.299.065-2.175-.337-3.103-.762-1.115-.51-2.38-1.09-4.185-.568-1.143.33-2.077.92-2.779 1.753-.759.902-1.075 1.897-1.203 2.67h-.116v-1.626c0-5.781 4.703-10.484 10.484-10.484h.564c5.781 0 10.484 4.703 10.484 10.484v1.626h-.075a5.343 5.343 0 00-.634-1.994 5.52 5.52 0 00-3.175-2.554.84.84 0 00-.48 1.608c.34.101 1.503.528 2.188 1.76a3.788 3.788 0 01.457 2.02v7.58c0 4.99-4.06 9.049-9.05 9.049-4.99 0-9.049-4.06-9.049-9.05zm3.782 13.581a5.312 5.312 0 01-.115-1.104v-3.202a10.66 10.66 0 005.383 1.451c1.962 0 3.803-.53 5.387-1.454v3.205a5.421 5.421 0 01-.113 1.102L52.41 71.85l-5.27-4.06zm10.075 8.299l-3.494-3.13 5.603-4.318 1.402.6.398.17-3.909 6.678zm21.096 10.773c0 .4-.325.725-.724.725H63.892a.725.725 0 01-.724-.725v-8.6c0-.4.325-.724.724-.724H77.588c.399 0 .724.324.724.724v8.6z" fill="#37486E"/><path d="M76.737 81.272c0-1.26-1.06-2.284-2.365-2.284h-1.477-.001a.839.839 0 00-.84.839v5.559a.839.839 0 101.678 0v-1.192l1.537 1.746a.837.837 0 001.184.075.839.839 0 00.075-1.183l-1.27-1.444c.866-.34 1.48-1.16 1.48-2.116zm-2.365-.606c.373 0 .688.277.688.606 0 .328-.315.606-.688.606-.151 0-.39 0-.633.002a147.46 147.46 0 01-.003-1.214h.636zM69.514 78.988a.839.839 0 00-.839.839v1.845h-2.17v-1.845a.839.839 0 10-1.677 0v5.559a.839.839 0 101.678 0V83.35h2.169v2.036a.839.839 0 101.678 0v-5.559a.839.839 0 00-.84-.839z" fill="#0091FF"/></g></g></svg>