<svg width="102" height="104" xmlns="http://www.w3.org/2000/svg"><g fill="none" fill-rule="evenodd"><path d="M44.424 22.393c5.906 3.722 10.845 6.24 14.816 7.556 4.2 1.392 12.47 3.144 24.81 5.257a8 8 0 014.309 13.54c-8.013 8.02-13.493 13.956-16.44 17.807-3.268 4.272-8.315 12.376-15.14 24.311a8 8 0 01-13.268.93c-5.645-7.285-9.89-11.923-12.733-13.914-2.729-1.91-8.331-4.3-16.808-7.169a8 8 0 01-2.893-13.427c7.074-6.6 11.808-11.61 14.2-15.027 2.399-3.425 4.844-8.676 7.336-15.753a8 8 0 0111.81-4.111z" fill="#A0D3FF" opacity=".122"/><g transform="translate(33 43)"><path d="M44.664 3.204H6.336a.747.747 0 100 1.494h38.327a.747.747 0 000-1.494zM44.664 31.95H6.336a.747.747 0 100 1.494h38.327a.747.747 0 000-1.494z" fill="#37486E" fill-rule="nonzero"/><rect fill="#0091FF" x="7" y="12" width="38" height="2" rx="1"/><rect fill="#0091FF" x="7" y="17" width="38" height="2" rx="1"/><rect fill="#0091FF" x="7" y="22" width="22" height="2" rx="1"/><path d="M49.454 35.144h-.85V3.153A3.146 3.146 0 0045.462.01H5.538a3.146 3.146 0 00-3.142 3.143v31.99h-.85C.693 35.144 0 35.838 0 36.69v1.597a2.347 2.347 0 002.344 2.344h46.312A2.347 2.347 0 0051 38.286V36.69c0-.852-.693-1.545-1.546-1.545zM3.89 3.153c0-.909.739-1.649 1.648-1.649h39.924c.91 0 1.648.74 1.648 1.649v31.99H3.89V3.154zm45.616 35.133c0 .469-.381.85-.85.85H2.344a.85.85 0 01-.85-.85V36.69c0-.028.023-.051.052-.051H22.36l-.002.051c0 .413.334.747.747.747h4.79a.747.747 0 00.748-.747l-.003-.051h20.815c.028 0 .051.023.051.051v1.597z" fill="#37486E" fill-rule="nonzero"/></g><circle fill="#0091FF" opacity=".2" cx="10" cy="40" r="2"/><circle fill="#0091FF" opacity=".193" cx="97" cy="69" r="5"/><circle fill="#0091FF" opacity=".304" cx="68" cy="18" r="2"/></g></svg>