<svg width="102" height="104" xmlns="http://www.w3.org/2000/svg"><g fill="none" fill-rule="evenodd"><path d="M44.424 22.393c5.906 3.722 10.845 6.24 14.816 7.556 4.2 1.392 12.47 3.144 24.81 5.257a8 8 0 014.309 13.54c-8.013 8.02-13.493 13.956-16.44 17.807-3.268 4.272-8.315 12.376-15.14 24.311a8 8 0 01-13.268.93c-5.645-7.285-9.89-11.923-12.733-13.914-2.729-1.91-8.331-4.3-16.808-7.169a8 8 0 01-2.893-13.427c7.074-6.6 11.808-11.61 14.2-15.027 2.399-3.425 4.844-8.676 7.336-15.753a8 8 0 0111.81-4.111z" fill="#A0D3FF" opacity=".122"/><circle fill="#0091FF" opacity=".2" cx="10" cy="40" r="2"/><circle fill="#0091FF" opacity=".193" cx="97" cy="69" r="5"/><circle fill="#0091FF" opacity=".304" cx="68" cy="18" r="2"/><g fill-rule="nonzero"><path d="M48.246 67.348h-3.144c-.98 0-1.776-.796-1.776-1.776V63.82a.235.235 0 00-.182-.223 13.312 13.312 0 01-3.124-1.298c-.09-.051-.194-.041-.261.026l-1.252 1.251c-.335.336-.781.52-1.256.52-.474 0-.92-.184-1.256-.52l-2.223-2.223a1.765 1.765 0 01-.52-1.256c0-.474.185-.92.52-1.256l1.251-1.251c.068-.067.078-.172.026-.261-.564-.983-1-2.035-1.297-3.125a.235.235 0 00-.223-.181h-1.753c-.98 0-1.776-.797-1.776-1.777v-3.144c0-.98.797-1.776 1.776-1.776h1.753a.235.235 0 00.223-.182c.297-1.09.733-2.14 1.298-3.124.05-.09.04-.194-.026-.261l-1.252-1.252a1.764 1.764 0 01-.52-1.256c0-.474.185-.92.52-1.256l2.223-2.223c.336-.335.782-.52 1.256-.52.475 0 .921.185 1.256.52l1.252 1.252c.067.067.171.077.26.026.984-.565 2.035-1.001 3.125-1.298.11-.03.182-.12.182-.223v-1.753c0-.98.797-1.776 1.776-1.776h3.144c.98 0 1.777.797 1.777 1.776v1.753c0 .103.072.193.181.222 1.09.298 2.141.734 3.124 1.299.09.05.195.04.262-.026l1.251-1.252a1.775 1.775 0 012.512 0l.235.236c.735.734-.375 1.845-1.11 1.11-.145-.125-.33-.43-.526-.235L54.7 40.134a1.79 1.79 0 01-2.154.278 11.771 11.771 0 00-2.755-1.145 1.812 1.812 0 01-1.34-1.739v-1.752a.205.205 0 00-.205-.205h-3.144a.205.205 0 00-.205.205v1.753c0 .808-.551 1.523-1.34 1.738-.961.262-1.889.647-2.756 1.145a1.79 1.79 0 01-2.153-.278l-1.252-1.25a.2.2 0 00-.145-.061.2.2 0 00-.145.06l-2.223 2.223a.202.202 0 00-.06.145c0 .04.01.096.06.145l1.251 1.252a1.79 1.79 0 01.278 2.154 11.774 11.774 0 00-1.145 2.756 1.811 1.811 0 01-1.738 1.339h-1.753a.206.206 0 00-.205.205v3.144c0 .114.092.206.205.206h1.753c.808 0 1.523.55 1.738 1.339.262.962.647 1.889 1.145 2.756a1.79 1.79 0 01-.278 2.153l-1.25 1.252a.2.2 0 00-.061.145c0 .039.01.096.06.145l2.223 2.223c.08.08.21.081.29 0l1.252-1.251a1.79 1.79 0 012.154-.277c.867.497 1.794.882 2.756 1.145.788.214 1.34.93 1.34 1.738v1.752c0 .114.091.206.204.206h3.144a.205.205 0 00.206-.206V63.82c0-.809.55-1.524 1.34-1.738 1.003-.274 1.414 1.242.413 1.515a.235.235 0 00-.182.223v1.752c0 .98-.797 1.776-1.777 1.776z" fill="#0794FF"/><path d="M39.272 50.674c0-5.193 5.222-8.754 10.034-6.92.97.37.413 1.838-.56 1.468-3.797-1.448-7.904 1.372-7.904 5.452 0 3.32 2.796 6.02 6.18 5.822 1.035-.063 1.132 1.507.093 1.568-4.268.251-7.843-3.152-7.843-7.39z" fill="#0794FF"/><path d="M73.464 68.878l-7.958-1.548v-1.966c2.235-1.525 3.445-3.684 3.708-6.109a2.258 2.258 0 002.076-2.248v-1.614c1.891-.822 1.636-3.582-.365-4.048v-.623c0-5.601-4.541-10.142-10.142-10.142h-.85c-5.602 0-10.143 4.54-10.143 10.142v.623c-2 .465-2.257 3.226-.365 4.048v1.614c0 1.183.916 2.156 2.076 2.248.23 2.116 1.221 4.053 2.786 5.4.3.257.607.494.922.71v1.965l-7.958 1.548c-4.199.817-7.471 3.183-7.471 7.55v7.99a3.2 3.2 0 003.2 3.2h34.755a3.2 3.2 0 003.2-3.2v-7.99c0-4.352-3.252-6.73-7.471-7.55zm-6.537.329c-.57.83-1.442 2.095-2.384 3.458-.384.556-1.072.627-1.341.465l-1.241-.744c1.21-.714 2.884-1.942 3.392-3.485l1.574.306zm-6.57 2.263c-1.193-.6-3.57-2.084-3.577-3.486V66.23a9.02 9.02 0 007.155 0v1.747c0 1.404-2.384 2.891-3.578 3.492zm-8.996-20.748a8.577 8.577 0 014.422-7.498v.984c0 1.039 1.57 1.04 1.57 0v-1.661a8.516 8.516 0 012.219-.389v3.884c0 1.038 1.57 1.04 1.57 0v-3.884a8.52 8.52 0 012.22.389v1.661c0 1.039 1.57 1.04 1.57 0v-.984a8.577 8.577 0 014.422 7.498v.567H51.361v-.567zm-1.086 2.138H70.44c.752 0 .752 1.138 0 1.138H50.275c-.753 0-.752-1.138 0-1.138zm2.747 5.6a.785.785 0 00-.786-.769c-.13-.032-1.24.205-1.24-.684V55.57h18.723v1.438c0 .887-1.14.66-1.24.684a.786.786 0 00-.786.77c-.042 1.963-.877 3.786-2.29 5.003-3 2.583-7.092 2.583-10.092 0-1.413-1.217-2.247-3.04-2.29-5.004zm2.34 10.44c.508 1.544 2.182 2.772 3.392 3.486-1.243.666-1.155.865-1.72.799a1.239 1.239 0 01-.868-.53c-.94-1.359-1.809-2.621-2.378-3.448l1.573-.306zm-9.063 17.147h-3.32c-.9 0-1.629-.73-1.629-1.63V76.43c0-2.354 1.07-3.981 3.415-5.106.095.419 1.534 4.325 1.534 9.783v4.941zm13.273 0H47.87v-4.941c0-5.914-1.493-9.722-1.64-10.367.917-.304.236-.07 5.877-1.205a1349.03 1349.03 0 006.43 9.286 5.653 5.653 0 011.035 3.27v3.957zm.785-7.242a7.394 7.394 0 00-.535-.889c-.603-.856-1.386-1.98-2.202-3.159.242-.053.48-.147.701-.28l2.036-1.22 2.037 1.22c.221.133.459.227.701.28-.816 1.178-1.599 2.302-2.202 3.16-.2.285-.38.582-.536.888zm19.008 5.612c0 .9-.73 1.63-1.63 1.63h-3.32v-2.963c0-1.038-1.57-1.04-1.57 0v2.963H61.143V82.09c0-1.177.358-2.307 1.035-3.27 1.014-1.441 5.191-7.47 6.43-9.286 5.638 1.135 4.958.9 5.877 1.205-.114.483-1.436 4.075-1.619 9.17-.037 1.042 1.533 1.093 1.57.057.177-4.93 1.386-8.103 1.514-8.643 2.345 1.125 3.415 2.752 3.415 5.105v7.99z" fill="#37486E"/></g></g></svg>