<svg width="101" height="105" xmlns="http://www.w3.org/2000/svg"><g transform="translate(.2 .209)" fill="none" fill-rule="evenodd"><path d="M44.424 22.393c5.906 3.722 10.845 6.24 14.816 7.556 4.2 1.392 12.47 3.144 24.81 5.257a8 8 0 014.309 13.54c-8.013 8.02-13.493 13.956-16.44 17.807-3.268 4.272-8.315 12.376-15.14 24.311a8 8 0 01-13.268.93c-5.645-7.285-9.89-11.923-12.733-13.914-2.729-1.91-8.331-4.3-16.808-7.169a8 8 0 01-2.893-13.427c7.074-6.6 11.808-11.61 14.2-15.027 2.399-3.425 4.844-8.676 7.336-15.753a8 8 0 0111.81-4.111z" fill="#A0D3FF" opacity=".122"/><circle fill="#0091FF" opacity=".193" cx="90.8" cy="87.791" r="5"/><g fill="#37486E" fill-rule="nonzero"><path d="M58.256 41.29a2.563 2.563 0 00-3.62 0l-6.44 6.44-2.314-2.315a2.544 2.544 0 00-1.81-.75c-.684 0-1.327.266-1.81.75a2.543 2.543 0 00-.75 1.81c0 .684.266 1.327.75 1.81l4.124 4.125c.484.484 1.127.75 1.81.75.684 0 1.327-.266 1.81-.75l8.25-8.249c.483-.483.75-1.126.75-1.81 0-.684-.267-1.327-.75-1.81zM57.2 43.855l-8.25 8.25a1.06 1.06 0 01-.754.311 1.06 1.06 0 01-.754-.312l-4.124-4.124a1.06 1.06 0 01-.313-.755c0-.285.111-.553.313-.754a1.06 1.06 0 01.754-.313c.285 0 .553.111.754.313l2.842 2.842a.747.747 0 001.057 0l6.966-6.967a1.068 1.068 0 011.509 1.509z"/><path d="M50.259 31.835c-2.595 0-5.157.666-7.408 1.926a.747.747 0 00.73 1.304 13.696 13.696 0 016.678-1.736c7.548 0 13.69 6.14 13.69 13.69 0 7.548-6.142 13.689-13.69 13.689-7.549 0-13.69-6.141-13.69-13.69 0-3.956 1.712-7.718 4.695-10.32a.747.747 0 00-.981-1.126 15.187 15.187 0 00-5.208 11.446c0 8.372 6.812 15.183 15.184 15.183s15.183-6.81 15.183-15.183c0-8.372-6.811-15.183-15.183-15.183zM60.473 78.245a.747.747 0 00-1.01-.313c-3.45 1.818-7.51 3.629-11.445 3.278l-16.982-1.513a.737.737 0 00-.067-.003h-4.676v-8.39h4.676a.747.747 0 00.482-.176c.018-.015 1.782-1.493 4.34-2.653a.747.747 0 00-.616-1.36 22.616 22.616 0 00-4.47 2.695h-5.159a.747.747 0 00-.746.747v9.884c0 .412.334.746.746.746h5.39l16.949 1.51c.38.035.759.05 1.137.05 3.937 0 7.814-1.743 11.138-3.493a.747.747 0 00.313-1.01z"/><path d="M75.222 67.314a2.846 2.846 0 00-3.38-.915 2.587 2.587 0 00-.476-1.342 2.596 2.596 0 00-3.307-.784l-1.784.938a2.562 2.562 0 00-3.78-2.119l-1.333.722a2.644 2.644 0 00-.512-1.446 2.63 2.63 0 00-3.356-.775l-9.608 5.03c-1.08-.414-4.524-1.534-8.548-.786-.298.055-.602.122-.905.197a.747.747 0 10.363 1.45c.273-.07.547-.13.815-.179 4.296-.798 7.973.806 8.009.822.015.007.03.012.046.017l.019.008a.75.75 0 00.24.04h10c.711 0 1.29.579 1.29 1.29 0 .649-.485 1.2-1.128 1.28l-12.674 1.603a.747.747 0 00.004 1.482l5.383.648c.147.018.294.034.442.049l.136.013.314.029.148.012.346.025.098.006c.144.01.288.016.432.023l.137.005a24.105 24.105 0 00.769.017l.142.001h.035c.132 0 .264 0 .397-.003l.114-.002c.11-.003.219-.005.328-.009l.174-.007a22.366 22.366 0 00.729-.04l.169-.012c.123-.01.246-.02.369-.032l.136-.013c.12-.012.239-.024.358-.038l.17-.02a24.372 24.372 0 00.718-.097l.173-.026c.108-.017.215-.035.323-.054l.111-.019c.14-.024.28-.05.419-.077l.159-.032a25.263 25.263 0 00.714-.155l.17-.04.302-.075.126-.031c.138-.036.276-.073.414-.112.047-.012.093-.026.14-.04.095-.026.19-.054.286-.082l.165-.05c.09-.027.178-.055.266-.083l.163-.052.29-.097.13-.044c.137-.047.274-.095.41-.145l.11-.04a24.954 24.954 0 00.727-.284 25.08 25.08 0 00.437-.183l.13-.055a26 26 0 00.404-.18l.067-.03.339-.16.136-.066a25.392 25.392 0 00.693-.35l.127-.066c.132-.07.264-.142.395-.215l4.931-2.736 1.795-.996a1.363 1.363 0 011.28 2.409l-9.847 5.356c-.51.278-1.03.565-1.554.856l-.067.037a.747.747 0 00.723 1.307l.067-.038c.522-.288 1.037-.573 1.545-.85l9.847-5.356a2.855 2.855 0 00.915-4.234zm-19.39-.616h-5.07l7.224-3.782a1.144 1.144 0 011.46.337c.201.272.27.604.197.933-.074.33-.278.6-.575.761l-3.236 1.751zm3.099.275l-.003-.001a2.714 2.714 0 00-.124-.056l-.045-.018c-.028-.011-.056-.023-.085-.033l-.007-.003 1.112-.601 3.427-1.855a1.07 1.07 0 011.542 1.228c-.08.288-.27.523-.534.662l-3.938 2.072-.02-.04a2.857 2.857 0 00-.033-.071l-.028-.055a2.994 2.994 0 00-.182-.303 3.52 3.52 0 00-.168-.219 2.999 2.999 0 00-.233-.242l-.058-.052-.046-.04-.06-.049-.047-.036-.066-.048-.046-.033-.071-.046-.045-.029-.082-.047-.038-.022a2.843 2.843 0 00-.122-.063zm11.397-.172c-.069.308-.26.562-.535.715l-4.931 2.737a23.784 23.784 0 01-.785.416 23.104 23.104 0 01-10.012 2.507c-.091.002-.182.003-.274.003l-.162.002a23.49 23.49 0 01-2.185-.099l6.63-.838c.07-.009.14-.02.209-.035l.027-.006a2.742 2.742 0 00.412-.122l.029-.012c.062-.025.124-.051.184-.08l.01-.006c.06-.029.119-.06.176-.094l.016-.01c.057-.033.112-.068.165-.105l.026-.018c.052-.037.103-.076.153-.117l.024-.02a2.74 2.74 0 00.146-.13l.013-.013c.048-.046.094-.094.138-.144l.005-.006c.044-.05.086-.101.127-.154l.017-.022c.038-.051.075-.104.11-.158l.017-.027c.035-.054.067-.11.098-.167l.012-.023c.032-.06.062-.12.089-.182v-.001a2.78 2.78 0 00.074-.19l.009-.024c.02-.061.04-.123.056-.186l.009-.035c.016-.062.03-.125.04-.19l.004-.013 4.133-2.174.308-.163 3.845-2.022a1.096 1.096 0 011.396.33c.184.258.247.568.177.876z"/></g></g></svg>