<svg width="102" height="104" xmlns="http://www.w3.org/2000/svg"><g fill="none" fill-rule="evenodd"><path d="M44.424 22.393c5.906 3.722 10.845 6.24 14.816 7.556 4.2 1.392 12.47 3.144 24.81 5.257a8 8 0 014.309 13.54c-8.013 8.02-13.493 13.956-16.44 17.807-3.268 4.272-8.315 12.376-15.14 24.311a8 8 0 01-13.268.93c-5.645-7.285-9.89-11.923-12.733-13.914-2.729-1.91-8.331-4.3-16.808-7.169a8 8 0 01-2.893-13.427c7.074-6.6 11.808-11.61 14.2-15.027 2.399-3.425 4.844-8.676 7.336-15.753a8 8 0 0111.81-4.111z" fill="#A0D3FF" opacity=".122"/><circle fill="#0091FF" opacity=".2" cx="10" cy="40" r="2"/><circle fill="#0091FF" opacity=".193" cx="97" cy="69" r="5"/><circle fill="#0091FF" opacity=".304" cx="68" cy="18" r="2"/><g fill-rule="nonzero"><path d="M61.858 49.7H45.944a.748.748 0 100 1.495h15.914a.748.748 0 000-1.496zM42.465 49.7h-2.52a.748.748 0 100 1.495h2.52a.748.748 0 100-1.496zM47.764 72.614h-7.82a.748.748 0 100 1.495h7.82a.748.748 0 100-1.495zM50.901 64.976H39.944a.748.748 0 100 1.495h10.957a.748.748 0 000-1.495zM56.234 57.338h-16.29a.748.748 0 100 1.495h16.29a.747.747 0 100-1.495z" fill="#37486E"/><path d="M70.382 42.05H39.487a4.969 4.969 0 00-4.964 4.964v29.415h-7.776a.748.748 0 00-.747.755c.03 2.968 2.163 5.207 4.962 5.207H61.952a4.969 4.969 0 004.963-4.964V68.37a.748.748 0 00-1.495 0v9.059a3.472 3.472 0 01-3.468 3.467h-.094c-1.956 0-3.446-1.602-3.467-3.726a.748.748 0 00-.748-.74H36.02V47.014a3.472 3.472 0 013.468-3.468h27.348c-.022.022-.042.046-.064.069l-.078.083-.079.092-.075.088-.074.095-.072.092-.07.098-.067.096-.064.1-.063.1-.06.104c-.02.035-.04.069-.058.104-.019.035-.036.07-.054.106-.019.035-.037.07-.054.106l-.05.11c-.016.036-.033.072-.048.109-.016.037-.03.075-.045.112-.014.037-.03.074-.043.112l-.04.116-.037.113c-.013.04-.023.08-.035.12l-.031.113-.03.127-.025.111c-.009.044-.016.089-.024.133l-.019.11c-.007.047-.012.095-.018.143-.004.034-.01.068-.013.103-.006.053-.009.107-.013.161l-.006.089a5.072 5.072 0 00-.007.253v6.635a.747.747 0 101.496 0v-5.637h7.69a.748.748 0 00.747-.755c-.03-2.968-2.162-5.206-4.97-5.206zM56.948 77.925c.01.078.022.154.035.23l.015.076.03.15.02.089c.01.045.02.09.032.134l.025.092a5.688 5.688 0 00.184.549l.035.089.051.117.037.084.06.121.036.075c.024.047.05.093.075.14l.028.05c.035.063.072.124.11.185l.027.042.091.137.044.062c.027.037.053.075.081.112l.05.065c.027.035.054.069.082.102l.055.066a4.821 4.821 0 00.141.16l.041.044H30.962c-1.716 0-3.074-1.233-3.395-2.97h29.38zM66.95 46.517l.002-.015.011-.068.017-.096.016-.072a3.697 3.697 0 01.087-.32 3.21 3.21 0 01.116-.307l.03-.068.038-.08.03-.057c.014-.03.029-.058.044-.086l.019-.032c.069-.123.145-.24.228-.353l.002-.003.082-.107.013-.016a3.51 3.51 0 01.085-.1l.016-.019a3.41 3.41 0 01.089-.096l.015-.016a3.633 3.633 0 01.212-.202l.004-.004a3.467 3.467 0 011.643-.795h.001c.051-.01.102-.018.154-.025l.01-.002.148-.017c.008 0 .015 0 .023-.002l.138-.01.08-.001.087-.002c1.716 0 3.074 1.233 3.395 2.971H66.95z" fill="#37486E"/><path d="M77 55.829l-.001-.026a.743.743 0 00-.037-.202l-.003-.01c0-.003-.002-.005-.003-.008a.755.755 0 00-.041-.095l-.007-.01a.752.752 0 00-.048-.078l-.012-.016a.746.746 0 00-.063-.074l-.016-.014a.744.744 0 00-.068-.059l-.01-.007a.764.764 0 00-.084-.053l-.017-.009a.739.739 0 00-.318-.08c-6.256-.162-14.412 1.344-18.536 6.051-1.805 2.06-2.637 4.674-3.443 7.202l-.198.62a.732.732 0 00-.008.026l-1.263 4.487a.748.748 0 001.439.405l1.172-4.161c1.432-.672 2.586-.986 4.144-1.41.808-.22 1.724-.468 2.833-.81 2.396-.736 6.994-3.82 9.11-6.11 1.85-2.003 3.408-3.491 5.206-4.977.003-.001.004-.003.006-.005a.748.748 0 00.074-.072l.005-.004a.745.745 0 00.181-.402v-.004a.764.764 0 00.006-.07v-.025zm-18.14 6.295c1.74-1.986 4.408-3.484 7.928-4.45.946-.26 1.946-.476 2.976-.646-2.618 1.27-5.121 2.86-6.52 3.794-2.257 1.508-4.694 3.338-6.494 4.965.533-1.35 1.177-2.596 2.11-3.663zm11.564-1.75c-2.06 2.228-6.507 5.097-8.452 5.695a83.51 83.51 0 01-2.786.797c-.72.196-1.377.375-2.026.58.29-.277.63-.59 1.032-.94 1.614-1.407 3.703-2.984 5.883-4.44 3.773-2.521 7.188-4.29 9.693-5.058a58.083 58.083 0 00-3.344 3.365z" fill="#0091FF"/></g></g></svg>