<svg width="101" height="105" xmlns="http://www.w3.org/2000/svg"><g transform="translate(.2 .209)" fill="none" fill-rule="evenodd"><path d="M44.424 22.393c5.906 3.722 10.845 6.24 14.816 7.556 4.2 1.392 12.47 3.144 24.81 5.257a8 8 0 014.309 13.54c-8.013 8.02-13.493 13.956-16.44 17.807-3.268 4.272-8.315 12.376-15.14 24.311a8 8 0 01-13.268.93c-5.645-7.285-9.89-11.923-12.733-13.914-2.729-1.91-8.331-4.3-16.808-7.169a8 8 0 01-2.893-13.427c7.074-6.6 11.808-11.61 14.2-15.027 2.399-3.425 4.844-8.676 7.336-15.753a8 8 0 0111.81-4.111z" fill="#A0D3FF" opacity=".122"/><path d="M73.658 72.945h-1.496c.191-.374.3-.797.3-1.246V45.801c0-1.51-1.23-2.739-2.74-2.739H65.69v-.912c0-.72-.585-1.305-1.305-1.305h-1.236v-3.749a1.308 1.308 0 00-1.732-1.233l-2.353.813a.747.747 0 00.488 1.412l2.103-.727V55.33l-10.607 3.668V41.029l5.492-1.899a.747.747 0 00-.489-1.412l-5.75 1.989-11.117-3.844a1.307 1.307 0 00-1.732 1.233v3.749h-1.236c-.72 0-1.305.585-1.305 1.305v.913h-4.034a2.742 2.742 0 00-2.74 2.74v2.656a.747.747 0 101.495 0v-2.657c0-.686.558-1.245 1.245-1.245h4.034v1.494h-3.038a.747.747 0 00-.747.747v23.906c0 .413.335.747.748.747h36.854a.747.747 0 00.747-.748V46.797a.747.747 0 00-.748-.747H65.69v-1.494h4.033c.687 0 1.245.559 1.245 1.245l.001 25.898c0 .687-.558 1.245-1.245 1.245l-38.846.001a1.246 1.246 0 01-1.245-1.245l-.001-20.044a.747.747 0 10-1.494 0V71.7c0 .448.11.871.301 1.245h-1.497c-1.18 0-2.141.961-2.141 2.142v2.191c0 1.181.96 2.142 2.141 2.142h29.702a.747.747 0 100-1.494H26.94a.648.648 0 01-.647-.648v-2.191c0-.357.29-.647.647-.647H45.27v.525c0 1.028.837 1.865 1.866 1.865h6.33a1.868 1.868 0 001.865-1.865v-.525h18.328c.357 0 .647.29.647.647v2.191c0 .357-.29.648-.647.648H59.904a.747.747 0 100 1.494h13.754c1.18 0 2.142-.96 2.142-2.142v-2.191c0-1.18-.961-2.142-2.142-2.142zM62.269 56.697c.526-.182.879-.678.879-1.234V42.34h1.047v16.96h-9.45l7.524-2.602zM38.945 37.36l10.607 3.668v17.968l-10.607-3.668V37.36zm-2.541 4.978h1.047v13.125c0 .555.353 1.051.879 1.233l7.523 2.602h-9.449v-16.96zm31.575 5.206l.001 22.411-35.36.001-.001-22.411h2.29v11.942c0 .72.586 1.305 1.306 1.305h28.17c.719 0 1.304-.586 1.304-1.305V47.545h2.29zm-14.143 27.42a.372.372 0 01-.372.371h-6.329a.372.372 0 01-.372-.372v-.525h7.073v.525z" fill="#37486E" fill-rule="nonzero"/><path d="M60.112 62.923H40.487a.747.747 0 100 1.495h19.625a.747.747 0 100-1.495zM53.214 66.093H40.487a.747.747 0 100 1.494h12.727a.747.747 0 100-1.494z" fill="#37486E" fill-rule="nonzero"/><circle fill="#0091FF" opacity=".193" cx="90.8" cy="87.791" r="5"/></g></svg>