<svg width="102" height="104" xmlns="http://www.w3.org/2000/svg"><g fill="none" fill-rule="evenodd"><path d="M44.424 22.393c5.906 3.722 10.845 6.24 14.816 7.556 4.2 1.392 12.47 3.144 24.81 5.257a8 8 0 014.309 13.54c-8.013 8.02-13.493 13.956-16.44 17.807-3.268 4.272-8.315 12.376-15.14 24.311a8 8 0 01-13.268.93c-5.645-7.285-9.89-11.923-12.733-13.914-2.729-1.91-8.331-4.3-16.808-7.169a8 8 0 01-2.893-13.427c7.074-6.6 11.808-11.61 14.2-15.027 2.399-3.425 4.844-8.676 7.336-15.753a8 8 0 0111.81-4.111z" fill="#A0D3FF" opacity=".122"/><circle fill="#0091FF" opacity=".2" cx="10" cy="40" r="2"/><circle fill="#0091FF" opacity=".193" cx="97" cy="69" r="5"/><circle fill="#0091FF" opacity=".304" cx="68" cy="18" r="2"/><g fill-rule="nonzero"><path d="M76.265 40.436h-2.316v-.448a.747.747 0 00-.747-.747h-3.736v-1.494a.747.747 0 10-1.494 0v1.494h-3.735a.747.747 0 00-.747.747v.448h-3.76v-.448a.747.747 0 00-.748-.747h-3.735v-1.494a.747.747 0 10-1.494 0v1.494h-3.735a.747.747 0 00-.747.747v.448h-3.76v-.448a.747.747 0 00-.748-.747h-3.735v-1.494a.747.747 0 10-1.494 0v1.494h-3.736a.747.747 0 00-.747.747v.448h-2.316A3.74 3.74 0 0029 44.17v24.107a3.74 3.74 0 003.735 3.736h7.57v2.241c0 .413.335.747.748.747h8.218v3.081a.747.747 0 101.494 0v-6.069h7.47v14.491h-7.47v-5.167a.747.747 0 10-1.494 0v5.168h-3.736a.747.747 0 100 1.494h17.93a.747.747 0 100-1.494h-3.736V75.002h8.218a.747.747 0 00.747-.747v-2.241h2.459a.747.747 0 100-1.494H32.735a2.244 2.244 0 01-2.24-2.242V44.171a2.244 2.244 0 012.24-2.241h2.316v1.494h-2.316a.747.747 0 00-.747.747v4.845a.747.747 0 101.494 0v-4.098h42.036V67.53H33.482v-15.26a.747.747 0 10-1.494 0v16.007c0 .413.335.747.747.747h43.53a.747.747 0 00.747-.747V44.171a.747.747 0 00-.747-.747h-2.316V41.93h2.316a2.244 2.244 0 012.24 2.24v24.108a2.244 2.244 0 01-2.24 2.242h-1.856a.747.747 0 100 1.494h1.856A3.74 3.74 0 0080 68.278V44.171a3.74 3.74 0 00-3.735-3.735zM67.2 73.508h-7.47v-1.494h7.47v1.494zm-25.4 0v-1.494h7.47v1.494H41.8zM63.49 41.93v1.494h-3.76V41.93h3.76zm-12.725-1.195h7.47v2.689h-7.47v-2.689zM49.27 41.93v1.494h-3.76V41.93h3.76zm-12.726-1.195h7.471v2.689h-7.47v-2.689zm28.439 2.689v-2.689h7.47v2.689h-7.47z" fill="#37486E"/><path d="M47.979 66.186a2.305 2.305 0 002.302-2.303v-4.61h.589l6.029 3.014a2.245 2.245 0 002.122 1.522 2.244 2.244 0 002.241-2.24V49.002a2.244 2.244 0 00-2.241-2.241c-.984 0-1.822.638-2.122 1.522l-6.03 3.014h-4.36a3.992 3.992 0 00-3.987 3.987 3.994 3.994 0 003.154 3.9v4.698a2.305 2.305 0 002.303 2.303zm.808-2.303a.81.81 0 01-1.617 0v-4.61h1.617v4.61zM59.02 48.256c.412 0 .747.335.747.747v12.565a.748.748 0 01-1.494 0V49.003c0-.412.335-.747.747-.747zM56.78 60.557l-4.987-2.493v-5.557l4.987-2.493v10.543zm-12.764-5.272a2.496 2.496 0 012.494-2.493h3.789v4.987H46.51a2.496 2.496 0 01-2.494-2.494zM66.259 48.63a.747.747 0 00-1.057 0l-2.419 2.419a.747.747 0 001.056 1.056l2.42-2.419a.747.747 0 000-1.057zM62.783 59.578l2.42 2.42a.745.745 0 001.056 0 .747.747 0 000-1.057l-2.42-2.42a.747.747 0 00-1.056 1.057zM63.311 54.538a.747.747 0 100 1.495h2.42a.747.747 0 100-1.495h-2.42z" fill="#0091FF"/></g></g></svg>