<svg xmlns="http://www.w3.org/2000/svg" width="36" height="32"><g fill="none"><path fill="#FF6A85" d="M16.455 31.736c4.583 0 8.713-1.934 11.616-5.027a15.79 15.79 0 004.293-10.841C32.364 7.104 25.24 0 16.454 0 7.669 0 .546 7.104.546 15.868c0 4.556 1.926 8.664 5.01 11.558l-2.407 2.251a1.188 1.188 0 00.816 2.059h12.49z"/><path fill="#FFF" d="M17.164 19.438l-2.633 3.561a1.976 1.976 0 01-3.338-.253l-5.247-9.602a1.985 1.985 0 01.823-2.68 1.979 1.979 0 012.675.824l3.777 6.82 1.804-2.438-1.382-2.434a1.986 1.986 0 01.741-2.705 1.978 1.978 0 012.699.743l3.901 6.873L31.96 2.81a1.973 1.973 0 012.76-.455 1.986 1.986 0 01.455 2.767L22.4 22.975a1.976 1.976 0 01-3.327-.176l-1.908-3.361z"/></g></svg>