<svg width="105" height="104" xmlns="http://www.w3.org/2000/svg"><g fill="none" fill-rule="evenodd"><path d="M44.424 22.393c5.906 3.722 10.845 6.24 14.816 7.556 4.2 1.392 12.47 3.144 24.81 5.257a8 8 0 014.309 13.54c-8.013 8.02-13.493 13.956-16.44 17.807-3.268 4.272-8.315 12.376-15.14 24.311a8 8 0 01-13.268.93c-5.645-7.285-9.89-11.923-12.733-13.914-2.729-1.91-8.331-4.3-16.808-7.169a8 8 0 01-2.893-13.427c7.074-6.6 11.808-11.61 14.2-15.027 2.399-3.425 4.844-8.676 7.336-15.753a8 8 0 0111.81-4.111z" fill="#A0D3FF" opacity=".122"/><g fill-rule="nonzero"><path d="M86.237 80.098l-1.611-1.61a6.069 6.069 0 00-2.933-1.631c.009-.071.015-.143.015-.216V44.92c0-.94-.765-1.705-1.705-1.705h-31.72c-.94 0-1.705.765-1.705 1.706v25.551a.824.824 0 001.649 0V44.922c0-.032.025-.057.057-.057h11.51v9.749c0 .455.37.824.825.824h7.049c.455 0 .824-.37.824-.824v-9.75h11.51c.032 0 .057.026.057.058V76.64a.057.057 0 01-.056.056H53.57a.824.824 0 000 1.65h26.735c1.192 0 2.312.463 3.155 1.307l1.611 1.61a.93.93 0 01.275.663.933.933 0 01-.938.938.932.932 0 01-.663-.275l-1.612-1.61a2.606 2.606 0 00-1.828-.758h-29.5c.042-.307.065-.62.065-.938 0-3.576-2.7-6.532-6.167-6.942V37.356c.14-.321.213-.67.213-1.031 0-.691-.269-1.34-.757-1.83l-3.738-3.737A2.569 2.569 0 0038.59 30c-.69 0-1.34.27-1.828.758a2.57 2.57 0 00-.758 1.828c0 .691.27 1.341.758 1.83l3.738 3.738a2.578 2.578 0 002.553.653v33.535c-3.468.41-6.168 3.366-6.168 6.942a7 7 0 006.992 6.992c2.942 0 5.463-1.827 6.494-4.406h29.933c.247 0 .488.1.663.275l1.611 1.611a2.57 2.57 0 001.83.758c.69 0 1.34-.27 1.829-.758a2.57 2.57 0 00.757-1.83c0-.69-.27-1.34-.758-1.828zM66.843 53.79h-5.4v-8.924h5.4v8.924zm-23.85-16.801a.939.939 0 01-1.326 0l-3.738-3.738a.939.939 0 011.326-1.327l3.738 3.739a.939.939 0 010 1.326zm.885 47.64a5.35 5.35 0 01-5.343-5.344 5.35 5.35 0 015.343-5.343 5.35 5.35 0 015.343 5.343 5.35 5.35 0 01-5.343 5.343z" fill="#37486E"/><path d="M43.878 75.816a3.471 3.471 0 00-3.467 3.468 3.471 3.471 0 003.467 3.467 3.471 3.471 0 003.468-3.467 3.471 3.471 0 00-3.468-3.468zm0 5.287a1.82 1.82 0 01-1.819-1.819 1.82 1.82 0 011.82-1.819 1.82 1.82 0 011.818 1.819 1.82 1.82 0 01-1.819 1.819zM60.619 69.649H53.57a.824.824 0 000 1.648h7.049a.824.824 0 000-1.648zM64.143 66.124H53.57a.824.824 0 000 1.65h10.573a.824.824 0 000-1.65z" fill="#0091FF"/></g><circle fill="#0091FF" opacity=".2" cx="14" cy="40" r="2"/><circle fill="#0091FF" opacity=".193" cx="100" cy="69" r="5"/><circle fill="#0091FF" opacity=".304" cx="72" cy="18" r="2"/></g></svg>