<svg xmlns="http://www.w3.org/2000/svg" width="191" height="50"><g fill="none" fill-rule="evenodd"><g fill-rule="nonzero"><path fill="#FF6A85" d="M25.017 49.873a25.06 25.06 0 0018.268-7.85c4.186-4.43 6.75-10.385 6.75-16.932C50.034 11.404 38.832.308 25.016.308S0 11.404 0 25.091c0 7.116 3.028 13.532 7.877 18.051L4.093 46.66a1.847 1.847 0 00-.461 2.04 1.876 1.876 0 001.744 1.174h19.641z"/><path fill="#FFF" d="M26.133 30.482l-4.109 5.535c-1.353 1.822-4.146 1.611-5.21-.393L8.626 20.699a3.08 3.08 0 011.285-4.167 3.099 3.099 0 012.355-.221c.783.24 1.438.782 1.818 1.503l5.896 10.602 2.814-3.791-2.156-3.783a3.08 3.08 0 011.156-4.205 3.098 3.098 0 012.348-.292c.79.216 1.461.737 1.864 1.447l6.09 10.683L49.221 4.637a3.094 3.094 0 014.309-.707 3.08 3.08 0 01.71 4.302L34.304 35.979c-1.313 1.826-4.08 1.682-5.193-.273l-2.978-5.224z"/><path fill="#FF6A85" d="M95.85 3.786h5.524L90.565 29.44h-5.592l-3.92-9.372-3.922 9.372h-5.558L62.651 8.537h5.558l6.33 15.258 4.024-9.61-2.174-5.648h5.08l6.096 15.292L95.85 3.786zm11.832 25.653c-5.194 0-8.919-3.943-8.919-8.913 0-5.005 3.725-8.913 8.92-8.913 5.16 0 8.918 3.908 8.918 8.913 0 4.97-3.759 8.913-8.919 8.913zm.218-4.348c2.309 0 3.915-1.999 3.915-4.548 0-2.55-1.606-4.583-3.915-4.583-2.376 0-3.916 2.033-3.916 4.583 0 2.55 1.54 4.548 3.916 4.548zm21.49-13.044c-2.004 0-3.766 1.16-4.941 2.967l-.276-2.626h-4.526v17.05h5.044v-8.525c0-2.83 2.004-4.535 4.076-4.535 1.451 0 2.211.443 2.695.784l2.107-3.648c-1.036-.99-2.176-1.467-4.18-1.467zm22.453.29h-6.105l-5.828 5.61V3.786h-5.035v25.652h5.035V21.81l5.828 7.628h6.105l-7.691-9.748 7.69-7.354zm17.838 8.171c0 .48-.034.959-.102 1.472h-11.508c.271 2.258 1.392 3.627 3.734 3.627 1.663 0 2.75-.582 3.938-2.361l3.497 1.745c-1.256 2.737-3.938 4.448-7.333 4.448-5.941 0-8.759-3.798-8.759-8.896 0-5.064 3.157-8.93 8.59-8.93 4.922 0 7.943 3.49 7.943 8.895zm-7.745-4.982c-2.078 0-3.151 1.204-3.567 3.043h6.961c-.346-1.94-1.385-3.043-3.394-3.043zM191 12.047h-5.97l-4.254 4.986-4.255-4.986h-5.97l7.205 8.479-7.205 8.478h6.039l4.186-4.951 4.22 4.95H191l-7.24-8.443 7.24-8.513z"/></g><path fill="#192868" d="M65.703 49c-.886 0-1.659-.246-2.32-.738-.662-.492-1.123-1.171-1.383-2.037l1.937-.819c.136.514.354.899.656 1.155.302.257.672.386 1.11.386.49 0 .87-.16 1.14-.482.271-.32.406-.77.406-1.347v-7.861h2.11v7.845c0 .641-.097 1.205-.29 1.692a3.52 3.52 0 01-.78 1.22 3.222 3.222 0 01-1.157.737 4.036 4.036 0 01-1.43.249zm9.092-8.374c.594 0 1.138.104 1.633.313.495.208.922.497 1.281.866.36.369.64.81.844 1.323a4.54 4.54 0 01.304 1.685 4.54 4.54 0 01-.304 1.684 3.96 3.96 0 01-.844 1.324c-.36.369-.786.658-1.281.866a4.161 4.161 0 01-1.633.313 4.161 4.161 0 01-1.632-.313 3.858 3.858 0 01-1.281-.866 3.96 3.96 0 01-.844-1.324 4.54 4.54 0 01-.305-1.684c0-.61.102-1.171.305-1.685a3.96 3.96 0 01.844-1.323c.359-.37.786-.658 1.28-.866a4.161 4.161 0 011.633-.313zm0 6.433a1.958 1.958 0 001.406-.594c.188-.192.336-.428.446-.706a2.57 2.57 0 00.164-.946 2.57 2.57 0 00-.164-.947 2.098 2.098 0 00-.446-.706 1.958 1.958 0 00-1.406-.594 1.94 1.94 0 00-1.406.594 2.098 2.098 0 00-.445.706 2.57 2.57 0 00-.164.947c0 .353.055.668.164.946.11.278.258.514.445.706a1.94 1.94 0 001.406.594zm5.375-9.802h2.046v3.449l-.125 1.123h.125c.188-.332.48-.615.875-.85.396-.236.885-.353 1.469-.353.49 0 .955.104 1.398.313.443.208.833.497 1.172.866.338.369.606.81.804 1.323.198.514.297 1.075.297 1.685 0 .61-.099 1.171-.297 1.684a4.132 4.132 0 01-.804 1.324c-.339.369-.73.658-1.172.866A3.242 3.242 0 0184.56 49c-.584 0-1.073-.118-1.469-.353-.396-.235-.687-.519-.875-.85h-.125v.946H80.17V37.257zm3.968 9.802c.27 0 .528-.054.773-.16a2.05 2.05 0 00.649-.45 2.21 2.21 0 00.453-.706 2.43 2.43 0 00.172-.93c0-.342-.058-.653-.172-.93a2.198 2.198 0 00-.453-.707 2.034 2.034 0 00-.649-.449 1.997 1.997 0 00-1.547-.008 1.93 1.93 0 00-.648.441 2.198 2.198 0 00-.453.706 2.466 2.466 0 00-.172.947c0 .353.058.668.172.946.115.278.266.514.453.706a1.985 1.985 0 001.422.594zM92.574 49c-.5 0-.945-.064-1.335-.193a3.645 3.645 0 01-1.016-.505 3.26 3.26 0 01-.726-.722 3.504 3.504 0 01-.453-.826l1.827-.802c.177.406.414.708.711.906.297.198.628.297.992.297.375 0 .672-.07.89-.208.22-.14.329-.305.329-.498a.619.619 0 00-.273-.521c-.183-.134-.498-.254-.946-.361l-1.078-.24a3.707 3.707 0 01-.742-.257 2.893 2.893 0 01-.695-.45 2.267 2.267 0 01-.516-.657 1.898 1.898 0 01-.203-.899c0-.385.081-.727.243-1.027.161-.299.382-.553.663-.762a3.13 3.13 0 01.993-.48 4.31 4.31 0 011.226-.17c.73 0 1.38.148 1.953.442.573.294.995.762 1.265 1.404l-1.765.738a1.373 1.373 0 00-.64-.674 1.889 1.889 0 00-.844-.209c-.292 0-.547.062-.766.185-.219.123-.328.28-.328.473 0 .182.091.326.274.433.182.107.43.203.742.289l1.171.289c.781.192 1.362.5 1.742.922.38.423.57.923.57 1.5 0 .342-.078.669-.234.979-.156.31-.377.585-.664.826-.286.24-.63.43-1.03.57a4.057 4.057 0 01-1.337.208zm13.499 0a5.756 5.756 0 01-2.32-.465 5.696 5.696 0 01-1.852-1.276 5.922 5.922 0 01-1.226-1.909 6.199 6.199 0 01-.445-2.35c0-.834.148-1.618.445-2.35a5.922 5.922 0 011.226-1.91 5.696 5.696 0 011.852-1.275 5.756 5.756 0 012.32-.465 5.76 5.76 0 012.32.465c.713.31 1.33.736 1.851 1.276.52.54.93 1.176 1.226 1.909.297.732.446 1.516.446 2.35 0 .834-.149 1.618-.446 2.35a5.922 5.922 0 01-1.226 1.91 5.69 5.69 0 01-1.851 1.275 5.756 5.756 0 01-2.32.465zm0-2.053a3.696 3.696 0 002.648-1.091c.338-.343.604-.757.797-1.244a4.343 4.343 0 00.289-1.612c0-.588-.097-1.126-.29-1.612a3.658 3.658 0 00-.796-1.244 3.672 3.672 0 00-2.648-1.09 3.696 3.696 0 00-2.648 1.09 3.658 3.658 0 00-.797 1.244 4.343 4.343 0 00-.29 1.612c0 .588.097 1.126.29 1.612.192.487.458.901.797 1.244a3.672 3.672 0 002.648 1.09zm9.217-5.038h.125c.24-.396.563-.708.969-.938.406-.23.87-.345 1.39-.345.48 0 .901.08 1.266.24.364.16.664.388.898.682.234.294.412.647.531 1.059.12.412.18.869.18 1.372v4.764h-2.047v-4.508c0-.567-.122-.986-.367-1.26-.245-.272-.601-.408-1.07-.408a1.46 1.46 0 00-.742.184 1.748 1.748 0 00-.547.498 2.277 2.277 0 00-.344.738 3.398 3.398 0 00-.117.906v3.85h-2.046v-7.86h1.921v1.026zm7.046.93h5.296v1.862h-5.296V42.84zm7.296-5.582h3.781c.885 0 1.682.139 2.39.417a5.143 5.143 0 011.813 1.179 5.15 5.15 0 011.148 1.82c.266.707.398 1.482.398 2.327 0 .856-.132 1.636-.398 2.342a5.06 5.06 0 01-1.148 1.813 5.19 5.19 0 01-1.813 1.171c-.708.278-1.505.417-2.39.417h-3.78V37.257zm3.687 9.433c.615 0 1.156-.088 1.625-.265a3.15 3.15 0 001.172-.746c.312-.32.547-.708.703-1.163.156-.455.234-.96.234-1.516s-.078-1.061-.234-1.516a3.072 3.072 0 00-.703-1.163 3.163 3.163 0 00-1.172-.746c-.469-.177-1.01-.265-1.625-.265h-1.578v7.38h1.578zm14.545.16a4.358 4.358 0 01-1.43 1.556c-.598.396-1.33.594-2.194.594a4.12 4.12 0 01-1.617-.313 3.885 3.885 0 01-1.29-.874 4.006 4.006 0 01-.85-1.324 4.477 4.477 0 01-.305-1.676c0-.567.099-1.104.297-1.612.198-.508.474-.952.828-1.332.354-.38.773-.682 1.257-.906a3.76 3.76 0 011.602-.337c.614 0 1.161.104 1.64.313.48.208.88.497 1.203.866.323.369.568.805.734 1.307.167.503.25 1.048.25 1.637v.192c-.01.064-.015.123-.015.177a.925.925 0 00-.016.176h-5.765c.042.321.128.596.258.826.13.23.292.423.484.578.193.155.404.267.633.337.23.07.463.104.703.104.469 0 .857-.11 1.164-.329.307-.22.55-.494.726-.826l1.703.866zm-1.859-3.048a1.389 1.389 0 00-.133-.465 1.637 1.637 0 00-.343-.481 1.794 1.794 0 00-.563-.37 2.03 2.03 0 00-.804-.144c-.438 0-.823.129-1.156.385-.334.257-.568.615-.703 1.075h3.702zm3.297-2.92h1.921v1.027h.125c.24-.385.565-.695.977-.93a2.705 2.705 0 011.367-.353c.583 0 1.073.139 1.468.417.396.278.677.62.844 1.027.24-.396.578-.736 1.015-1.02.438-.283.97-.424 1.594-.424.469 0 .875.077 1.219.232.343.155.627.372.851.65.224.278.393.612.508 1.003.114.39.172.815.172 1.275v4.957h-2.047v-4.572c0-1.07-.427-1.604-1.281-1.604-.27 0-.51.061-.719.184a1.62 1.62 0 00-.523.498c-.14.208-.25.457-.328.746a3.552 3.552 0 00-.117.93v3.818H154.3v-4.572c0-1.07-.448-1.604-1.344-1.604-.26 0-.49.061-.687.184a1.602 1.602 0 00-.5.498 2.45 2.45 0 00-.312.746c-.073.288-.11.599-.11.93v3.818h-2.046v-7.86zm18.466 7.027h-.125c-.24.3-.528.556-.867.77-.338.214-.773.321-1.304.321-.396 0-.769-.067-1.118-.2a2.89 2.89 0 01-.913-.554 2.472 2.472 0 01-.61-.85 2.68 2.68 0 01-.218-1.091c0-.407.078-.773.234-1.1.156-.325.375-.606.656-.841.281-.236.612-.415.992-.538.38-.123.794-.184 1.242-.184.5 0 .911.04 1.234.12.323.08.589.163.797.249v-.24c0-.418-.161-.763-.484-1.036-.323-.272-.724-.409-1.203-.409-.708 0-1.307.305-1.797.915l-1.484-1.043c.812-1.048 1.922-1.572 3.328-1.572 1.187 0 2.093.286 2.718.858.625.572.938 1.42.938 2.543v4.716h-2.016v-.834zm0-2.358a4.161 4.161 0 00-.742-.28 3.173 3.173 0 00-.836-.105c-.49 0-.867.11-1.132.329-.266.219-.399.489-.399.81 0 .32.128.577.383.77.255.192.55.289.883.289a1.859 1.859 0 001.336-.553 1.805 1.805 0 00.508-1.26zm5.562-3.642h.125a2.62 2.62 0 01.969-.938c.406-.23.87-.345 1.39-.345.48 0 .9.08 1.265.24.365.16.664.388.899.682.234.294.411.647.531 1.059.12.412.18.869.18 1.372v4.764h-2.047v-4.508c0-.567-.122-.986-.367-1.26-.245-.272-.602-.408-1.07-.408a1.46 1.46 0 00-.742.184 1.748 1.748 0 00-.547.498 2.277 2.277 0 00-.344.738 3.398 3.398 0 00-.117.906v3.85h-2.047v-7.86h1.922v1.026zm12.748 5.888h-.125c-.187.331-.479.615-.875.85-.395.235-.885.353-1.468.353a3.23 3.23 0 01-1.398-.313 3.743 3.743 0 01-1.172-.866 4.132 4.132 0 01-.805-1.324 4.645 4.645 0 01-.297-1.684c0-.61.1-1.171.297-1.685.198-.513.466-.954.805-1.323a3.71 3.71 0 011.172-.866 3.242 3.242 0 011.398-.313c.583 0 1.073.117 1.468.353.396.235.688.518.875.85h.125l-.125-1.123v-3.45H188v11.487h-1.922v-.946zm-2.046-.738c.27 0 .528-.051.773-.153a1.93 1.93 0 00.648-.44 2.21 2.21 0 00.454-.707c.114-.278.171-.593.171-.946s-.057-.669-.171-.947a2.198 2.198 0 00-.454-.706 1.93 1.93 0 00-.648-.44 1.997 1.997 0 00-1.547.007c-.244.107-.46.257-.648.45a2.198 2.198 0 00-.453.705 2.421 2.421 0 00-.172.93c0 .343.057.653.172.931.115.278.266.514.453.706.188.193.404.342.648.45.245.106.503.16.774.16z"/></g></svg>